<svg xmlns="http://www.w3.org/2000/svg" width="1200" height="630" viewBox="0 0 1200 630" font-family="Segoe UI,system-ui,Arial,sans-serif" role="img" aria-label="Roanoke Crawl Space Pros. Crawl space encapsulation in Roanoke, VA. Call (540) 585-4403.">
  <defs>
    <linearGradient id="g" x1="0" y1="0" x2="1" y2="1"><stop offset="0" stop-color="#193524"/><stop offset=".6" stop-color="#224b33"/><stop offset="1" stop-color="#2a5a3c"/></linearGradient>
    <radialGradient id="r" cx="82%" cy="-10%" r="70%"><stop offset="0" stop-color="#2f6243" stop-opacity=".9"/><stop offset=".6" stop-color="#2f6243" stop-opacity="0"/></radialGradient>
  </defs>
  <rect width="1200" height="630" fill="url(#g)"/>
  <rect width="1200" height="630" fill="url(#r)"/>
  <g transform="translate(70,72)">
    <rect x="0" y="0" width="52" height="52" rx="14" fill="#2f6243"/>
    <path d="M26 13 L41 23 H11 Z" fill="#f3ead9"/>
    <rect x="18" y="23" width="16" height="10" fill="#f3ead9"/>
    <rect x="23.5" y="27" width="5.5" height="6" rx="1" fill="#2f6243"/>
    <rect x="14" y="35.5" width="24" height="5" rx="2.5" fill="#c0673a"/>
  </g>
  <text x="140" y="95" font-weight="800" font-size="28" fill="#ffffff">Roanoke Crawl Space Pros</text>
  <text x="141" y="120" font-weight="700" font-size="14.5" letter-spacing="4" fill="#d68a5c">ENCAPSULATION AND MOISTURE CONTROL</text>
  <text x="70" y="245" font-weight="800" font-size="66" fill="#ffffff">Crawl Space Encapsulation</text>
  <text x="70" y="320" font-weight="800" font-size="66" fill="#ffffff">in Roanoke, VA</text>
  <rect x="72" y="350" width="92" height="7" rx="3.5" fill="#c0673a"/>
  <text x="72" y="415" font-weight="500" font-size="27" fill="#cfe0d3">Stop moisture, mold, and musty air for good. Sealed, dry,</text>
  <text x="72" y="452" font-weight="500" font-size="27" fill="#cfe0d3">healthy crawl spaces, backed by a transferable warranty.</text>
  <rect x="70" y="510" width="258" height="66" rx="15" fill="#c0673a"/>
  <text x="199" y="552" text-anchor="middle" font-weight="800" font-size="28" fill="#ffffff">(540) 585-4403</text>
  <text x="352" y="551" font-weight="600" font-size="19" fill="#cfe0d3">Free On-Site Estimates  -  Licensed and Insured</text>
</svg>
